<?xml version="1.0" encoding="utf-8" standalone="no"?>
<!-- Copyright (C) 2025 Slava Monich <slava@monich.com> -->
<svg version="1.1" viewBox="0 0 64 64" xmlns="http://www.w3.org/2000/svg">
  <defs>
    <linearGradient id="gradient"  gradientUnits="userSpaceOnUse" x1="0" y1="0" x2="64" y2="64">
      <stop offset="0" style="stop-color:#7ac0e8;stop-opacity:1"/>
      <stop offset="1" style="stop-color:#0664a6;stop-opacity:1"/>
    </linearGradient>
  </defs>
  <rect style="fill:url(#gradient)" width="64" height="64"/>
  <g style="fill:#ffffff">
    <path d="m 15.433,52.285 c -0.695,0 -1.257,-0.5622 -1.257,-1.257 V 12.769 c 0,-1.784 0.952,-2.407 1.362,-2.592 0.411,-0.185 1.507,-0.489 2.846,0.691 l 23.949,21.087 c 0.521,0.459 0.571,1.253 0.113,1.774 -0.461,0.521 -1.256,0.568 -1.774,0.113 C 32.678,26.806 24.685,19.761 16.692,12.727 c 0,12.767 0,25.533 0,38.3 0,0.695 -0.564,1.259 -1.259,1.259 z"/>
    <path d="M 47.609,54 C 47.083,54 46.39,53.813 45.616,53.133 L 21.667,32.046 c -0.521,-0.459 -0.572,-1.253 -0.113,-1.774 0.458,-0.521 1.253,-0.574 1.774,-0.113 8.082,6.919 23.98,21.089 23.98,21.089 0,0 0,-25.534 0,-38.3 0,-0.695 0.562,-1.257 1.257,-1.257 0.695,0 1.257,0.562 1.257,1.257 v 38.257 c 0,1.786 -0.952,2.407 -1.362,2.592 C 48.287,53.9 48,54 47.61,54 Z"/>
  </g>
</svg>
